<?xml version="1.0" encoding="UTF-8" standalone="no"?>
<svg id="postgrespro-logo" xmlns:rdf="http://www.w3.org/1999/02/22-rdf-syntax-ns#" xmlns="http://www.w3.org/2000/svg" xml:space="preserve" height="105.94" viewBox="0 0 105.9375 105.9375" width="105.94" version="1.1" xmlns:cc="http://creativecommons.org/ns#" xmlns:dc="http://purl.org/dc/elements/1.1/"><metadata id="metadata8"><rdf:RDF><cc:Work rdf:about=""><dc:format>image/svg+xml</dc:format><dc:type rdf:resource="http://purl.org/dc/dcmitype/StillImage"/><dc:title/></cc:Work></rdf:RDF></metadata><defs id="defs6"><clipPath id="clipPath16" clipPathUnits="userSpaceOnUse"><path id="path18" d="m0 84.75h84.75v-84.75h-84.75v84.75z"/></clipPath></defs><g id="g10" transform="matrix(1.25 0 0 -1.25 0 105.94)"><g id="g12"><g id="g14" clip-path="url(#clipPath16)"><g id="g20" transform="translate(45.588 48.684)"><path id="path22" d="m0 0c0-1.448 1.176-2.623 2.623-2.623 1.449 0 2.623 1.175 2.623 2.623s-1.174 2.622-2.623 2.622c-1.447 0-2.623-1.174-2.623-2.622m2.555-48.282c-1.887-0.257-3.81-0.402-5.768-0.402-23.403 0-42.375 18.971-42.375 42.375 0 12.476 5.394 23.692 13.975 31.446-1.269-2.09-1.653-4.314-1.828-7.064-0.225-3.461 0.429-5.432 2.177-8.997 1.27-2.589 6.551-7.07 8.024-9.54 1.416-2.374 1.037-2.666 2.058-5.261 0.504-1.281 3.09-3.44 5.467-3.113 2.348 0.323 4.217 2.006 5.508 5.304 0.471 1.203 0.5 2.356 0.635 3.385 0.359 2.747 0.275 5 0.547 8.415 0.029 0.375 0.068 0.828-0.106 1.034-0.463 0.559-1.072 0.331-1.352-0.205-0.177-0.339-0.222-0.754-0.333-1.132-1.073-3.619-3.284-8.874-3.379-9.182-0.334-0.856-1.147-2.561-1.711-2.501-0.297 0.03-0.526 0.037-0.686 0.589-0.166 0.591-0.932 3.392-3.473 6.542-4.509 5.582-6.99 8.265-7.814 11.951-0.912 4.051 0.924 8.35 4.402 10.295 1.807 1.01 5.608 2.54 9.676 2.109 5.002-0.531 10.553-2.306 13.998-6.103 4.104-4.518 6.746-7.077 6.891-15.285 0.084-4.83-0.981-10.445-2.154-15.109-0.147-0.457-0.303-0.933-0.463-1.418-0.432-1.297-0.826-2.41-1.208-3.413-0.111 0.159-0.308 0.439-0.368 0.526-0.625 0.872-1.174 1.69-1.805 2.438-0.766 0.904-1.533 1.863-2.483 2.543-1.191 0.857-2.466 1.072-3.513-0.087-0.52-0.576-0.869-1.407-0.494-2.34 1.115-2.793 3.279-4.841 5.67-6.767 0.122-0.099 0.558-0.394 1.058-0.724-0.844-1.659-1.792-3.258-3.057-5.384-1.796-3.018-3.851-6.552-4.511-8.197-1.262-3.139-1.387-6.381-0.614-9.669 0.338-1.436 1.051-2.636 2.057-3.712 1.899-2.027 4.604-3.128 7.352-3.347m36.607 41.973c0-19.071-12.599-35.195-29.926-40.513 0.485 0.344 0.932 0.75 1.289 1.187 1.709 2.1 2.698 4.46 2.995 7.025 0.029 0.273 0.052 1.017 0.07 1.667 0.01 0.12 0.017 0.224 0.019 0.297 0.008 0.278 0 1.102 0 1.108v1.242h-5.08v-1.271s0.008-0.693 0.002-0.912c-0.015-0.338-0.191-1.645-0.265-1.948-0.153-0.554-0.334-1.203-0.432-1.557-0.082-0.212-0.176-0.419-0.275-0.617-0.913-1.773-2.917-2.609-4.868-2.267-2.871 0.5-4.962 3.201-4.566 6.116 0.197 1.466 0.543 2.916 1.215 4.224 1.271 2.47 2.828 4.802 4.398 7.089 0.299 0.435 1.407 2.07 2.711 4.607 1.336-0.6 2.511-0.95 3.293-1.135 1.434-0.341 2.305-0.417 2.987-0.258 0.084 0.02 0.712 0.117 0.872 0.372 0.055 0.087-0.091 0.266-0.265 0.313-2.136 0.563-4.202 1.272-5.827 2.898 1.378 3.026 2.79 6.89 3.6 11.3 0.596 3.251 1.311 6.484 1.457 9.839 0.159 2.782 0.055 5.883-0.332 8.492-0.812 5.509-3.217 9.419-6.951 13.432-4.861 5.226-11.672 7.633-18.693 8.306-2.593 0.248-4.801 0.153-6.726-0.185 5.185 2.262 10.906 3.524 16.923 3.524 23.403 0 42.375-18.972 42.375-42.375" fill="#003d58"/></g></g></g></g></svg>
