<?xml version="1.0" encoding="UTF-8"?>
<svg xmlns="http://www.w3.org/2000/svg" xmlns:xlink="http://www.w3.org/1999/xlink" width="595.275591pt" height="841.889764pt" viewBox="0 0 595.275591 841.889764" version="1.2">
<defs>
<clipPath id="clip1">
  <path d="M 159 815 L 194 815 L 194 841.890625 L 159 841.890625 Z M 159 815 "/>
</clipPath>
<clipPath id="clip2">
  <path d="M 124.113281 740 L 206 740 L 206 789 L 124.113281 789 Z M 124.113281 740 "/>
</clipPath>
</defs>
<g id="surface42386">
<g clip-path="url(#clip1)" clip-rule="nonzero">
<path style=" stroke:none;fill-rule:nonzero;fill:rgb(12.548828%,58.430481%,82.351685%);fill-opacity:1;" d="M 170.300781 821.054688 C 173.859375 821.054688 175.449219 822.785156 175.449219 826.660156 L 175.449219 836.238281 L 164.976562 836.238281 L 164.976562 826.070312 C 164.976562 822.601562 166.617188 821.054688 170.300781 821.054688 M 159.96875 825.101562 L 160.03125 841.890625 L 193.734375 841.890625 L 193.679688 836.238281 L 180.460938 836.265625 L 180.460938 825.96875 C 180.460938 822.75 179.539062 820.15625 177.71875 818.257812 C 175.886719 816.34375 173.363281 815.375 170.214844 815.375 C 167.09375 815.375 164.585938 816.238281 162.757812 817.941406 C 160.90625 819.667969 159.96875 822.078125 159.96875 825.101562 "/>
</g>
<path style=" stroke:none;fill-rule:nonzero;fill:rgb(12.548828%,58.430481%,82.351685%);fill-opacity:1;" d="M 182.230469 808.953125 C 181.011719 808.953125 179.917969 808.789062 178.972656 808.472656 C 178.074219 808.164062 177.304688 807.722656 176.6875 807.15625 C 175.394531 805.953125 174.761719 804.308594 174.761719 802.128906 C 174.761719 797.265625 177.136719 795 182.230469 795 C 183.484375 795 184.59375 795.140625 185.511719 795.421875 C 186.386719 795.6875 187.097656 796.082031 187.722656 796.65625 C 189.070312 797.820312 189.726562 799.609375 189.726562 802.128906 C 189.726562 804.371094 189.09375 806.023438 187.78125 807.175781 C 186.425781 808.371094 184.609375 808.953125 182.230469 808.953125 M 170.039062 802.128906 C 170.039062 806.019531 171.253906 809.085938 173.644531 811.246094 C 175.78125 813.195312 178.675781 814.179688 182.230469 814.179688 C 185.769531 814.179688 188.691406 813.167969 190.9375 811.152344 C 192.140625 810.03125 193.042969 808.707031 193.597656 807.210938 C 194.144531 805.757812 194.425781 804.046875 194.425781 802.128906 C 194.425781 798.0625 193.230469 794.894531 190.886719 792.710938 C 188.78125 790.757812 185.875 789.769531 182.230469 789.769531 C 178.570312 789.769531 175.648438 790.769531 173.554688 792.734375 C 171.222656 794.882812 170.039062 798.042969 170.039062 802.128906 "/>
<path style=" stroke:none;fill-rule:nonzero;fill:rgb(12.548828%,58.430481%,82.351685%);fill-opacity:1;" d="M 181.136719 768.191406 C 180.539062 769.347656 180.089844 771.320312 179.769531 774.195312 C 179.320312 777.835938 179.007812 779.21875 178.835938 779.714844 C 178.386719 780.898438 177.816406 781.058594 177.316406 781.058594 C 176.414062 781.058594 175.820312 780.75 175.40625 780.066406 C 175.054688 779.472656 174.625 778.261719 174.625 775.863281 C 174.625 771.308594 176.511719 770.722656 178.167969 770.722656 L 178.96875 770.722656 L 178.96875 765.4375 L 178.167969 765.4375 C 174.480469 765.4375 170.09375 767.230469 170.09375 775.777344 C 170.09375 777.367188 170.21875 778.792969 170.46875 780.023438 C 170.726562 781.300781 171.109375 782.386719 171.648438 783.339844 C 172.917969 785.257812 174.84375 786.230469 177.375 786.230469 C 180.003906 786.230469 181.929688 785.082031 182.964844 782.898438 C 183.234375 782.308594 183.675781 781 184.34375 776.449219 C 184.949219 772.265625 185.136719 771.507812 185.175781 771.382812 C 185.566406 770.390625 186.167969 769.964844 187.175781 769.964844 C 187.914062 769.964844 189.867188 769.964844 189.867188 775.332031 C 189.867188 778.425781 189.265625 779.785156 188.722656 780.429688 C 188.277344 781.011719 187.585938 781.324219 186.664062 781.421875 L 186.664062 786.84375 C 187.839844 786.699219 188.875 786.449219 189.71875 786.066406 C 190.726562 785.609375 191.558594 784.980469 192.175781 784.203125 C 192.96875 783.230469 193.550781 781.976562 193.886719 780.472656 C 194.207031 779.070312 194.367188 777.339844 194.367188 775.332031 C 194.367188 766.480469 190.261719 764.625 186.808594 764.625 C 184.179688 764.625 182.214844 765.875 181.136719 768.191406 "/>
<path style=" stroke:none;fill-rule:nonzero;fill:rgb(12.548828%,58.430481%,82.351685%);fill-opacity:1;" d="M 181.136719 647.226562 C 180.539062 648.386719 180.089844 650.359375 179.769531 653.234375 C 179.320312 656.875 179.007812 658.253906 178.835938 658.75 C 178.386719 659.9375 177.816406 660.097656 177.316406 660.097656 C 176.414062 660.097656 175.820312 659.789062 175.40625 659.105469 C 175.054688 658.511719 174.625 657.300781 174.625 654.902344 C 174.625 650.347656 176.511719 649.761719 178.167969 649.761719 L 178.96875 649.761719 L 178.96875 644.476562 L 178.167969 644.476562 C 174.480469 644.476562 170.09375 646.269531 170.09375 654.816406 C 170.09375 656.402344 170.21875 657.832031 170.46875 659.066406 C 170.726562 660.335938 171.109375 661.425781 171.648438 662.382812 C 172.917969 664.296875 174.84375 665.269531 177.375 665.269531 C 180.003906 665.269531 181.929688 664.121094 182.964844 661.9375 C 183.234375 661.347656 183.675781 660.035156 184.34375 655.488281 C 184.949219 651.304688 185.136719 650.546875 185.175781 650.421875 C 185.566406 649.429688 186.167969 649.003906 187.175781 649.003906 C 187.914062 649.003906 189.867188 649.003906 189.867188 654.367188 C 189.867188 657.464844 189.265625 658.824219 188.722656 659.46875 C 188.277344 660.050781 187.585938 660.363281 186.664062 660.460938 L 186.664062 665.878906 C 187.839844 665.738281 188.875 665.484375 189.71875 665.105469 C 190.726562 664.648438 191.558594 664.019531 192.175781 663.238281 C 192.96875 662.269531 193.550781 661.015625 193.886719 659.511719 C 194.207031 658.109375 194.367188 656.375 194.367188 654.367188 C 194.367188 645.519531 190.261719 643.664062 186.808594 643.664062 C 184.179688 643.664062 182.214844 644.910156 181.136719 647.226562 "/>
<path style=" stroke:none;fill-rule:nonzero;fill:rgb(12.548828%,58.430481%,82.351685%);fill-opacity:1;" d="M 188.6875 722.125 C 189.011719 722.925781 189.171875 723.878906 189.171875 724.957031 C 189.171875 730.015625 186.960938 732.269531 181.984375 732.269531 C 179.691406 732.269531 177.972656 731.675781 176.730469 730.441406 C 175.488281 729.214844 174.886719 727.488281 174.886719 725.15625 C 174.886719 722.828125 175.488281 721.136719 176.726562 719.988281 C 178 718.816406 179.675781 718.246094 181.867188 718.246094 C 184.253906 718.246094 186.082031 718.839844 187.277344 719.996094 C 187.898438 720.617188 188.375 721.332031 188.6875 722.125 M 172.289062 718.246094 C 172.039062 718.511719 171.882812 718.707031 171.761719 718.867188 C 170.617188 720.609375 170.039062 722.851562 170.039062 725.53125 C 170.039062 729.445312 171.15625 732.507812 173.34375 734.613281 C 175.367188 736.636719 178.277344 737.667969 181.984375 737.667969 C 183.804688 737.667969 185.460938 737.414062 186.898438 736.917969 C 188.382812 736.410156 189.667969 735.652344 190.742188 734.636719 C 192.855469 732.511719 193.933594 729.523438 193.933594 725.746094 C 193.933594 722.667969 193.226562 720.160156 191.824219 718.246094 L 192.332031 718.246094 C 196.558594 718.269531 197.277344 718.746094 198.347656 719.769531 C 199.386719 720.769531 199.921875 722.542969 199.921875 725.042969 C 199.921875 728.027344 199.332031 729.402344 198.832031 730.03125 C 198.363281 730.628906 197.390625 731.085938 196.015625 731.34375 L 194.960938 731.546875 L 195.011719 736.726562 L 196.449219 736.707031 C 197.011719 736.632812 197.546875 736.53125 198.050781 736.398438 C 199.945312 735.910156 201.414062 735.007812 202.414062 733.71875 C 203.84375 731.898438 204.539062 729.03125 204.539062 724.957031 C 204.539062 715.023438 198.628906 712.941406 193.667969 712.941406 L 170.699219 712.941406 L 170.699219 718.234375 Z M 172.289062 718.246094 "/>
<path style=" stroke:none;fill-rule:nonzero;fill:rgb(12.548828%,58.430481%,82.351685%);fill-opacity:1;" d="M 171.363281 703.429688 C 171.429688 703.515625 171.5 703.601562 171.566406 703.683594 L 170.714844 703.683594 L 170.714844 708.886719 L 193.667969 708.855469 L 193.667969 703.683594 L 182.425781 703.683594 C 175.808594 703.683594 175.046875 700.652344 175.046875 698.367188 C 175.046875 697.757812 175.0625 694.878906 175.0625 694.878906 L 170.039062 694.878906 L 170.039062 697.921875 C 170.039062 700.304688 170.460938 702.089844 171.363281 703.429688 "/>
<path style=" stroke:none;fill-rule:nonzero;fill:rgb(12.548828%,58.430481%,82.351685%);fill-opacity:1;" d="M 176.378906 685.84375 C 175.753906 685.210938 175.28125 684.476562 174.980469 683.671875 C 174.671875 682.847656 174.511719 681.894531 174.511719 680.835938 C 174.511719 678.796875 175.148438 677.1875 176.46875 675.917969 C 177.441406 674.96875 178.488281 674.382812 179.632812 674.140625 L 179.632812 687.46875 C 178.257812 687.113281 177.15625 686.5625 176.378906 685.84375 M 186.664062 674.929688 C 188.757812 675.941406 189.757812 677.777344 189.757812 680.636719 C 189.757812 683.066406 189.054688 684.859375 187.609375 686.117188 C 186.636719 686.972656 185.4375 687.484375 183.988281 687.664062 L 183.988281 668.695312 L 182.734375 668.695312 C 178.976562 668.695312 175.949219 669.660156 173.742188 671.550781 C 172.480469 672.613281 171.53125 673.953125 170.925781 675.53125 C 170.339844 677.050781 170.039062 678.835938 170.039062 680.835938 C 170.039062 684.621094 171.132812 687.628906 173.28125 689.773438 C 175.433594 691.914062 178.359375 692.996094 181.976562 692.996094 C 185.601562 692.996094 188.550781 691.960938 190.707031 689.921875 C 193.136719 687.703125 194.367188 684.570312 194.367188 680.609375 C 194.367188 679.046875 194.144531 677.570312 193.707031 676.222656 C 193.261719 674.863281 192.625 673.652344 191.773438 672.585938 C 190.375 670.949219 188.652344 669.847656 186.664062 669.289062 Z M 186.664062 674.929688 "/>
<path style=" stroke:none;fill-rule:nonzero;fill:rgb(16.078186%,29.411316%,38.430786%);fill-opacity:1;" d="M 153.898438 735.734375 L 153.898438 732.9375 C 153.898438 731.941406 154.40625 731.457031 155.460938 731.457031 C 156.472656 731.457031 156.96875 731.988281 156.96875 733.085938 L 156.96875 735.734375 Z M 153.011719 732.6875 L 153.023438 736.785156 L 161.253906 736.785156 L 161.242188 735.734375 L 157.859375 735.742188 L 157.859375 732.910156 C 157.859375 732.140625 157.640625 731.523438 157.214844 731.074219 C 156.78125 730.625 156.183594 730.398438 155.433594 730.398438 C 154.683594 730.398438 154.09375 730.601562 153.664062 731 C 153.226562 731.402344 153.011719 731.972656 153.011719 732.6875 "/>
<path style=" stroke:none;fill-rule:nonzero;fill:rgb(16.078186%,29.411316%,38.430786%);fill-opacity:1;" d="M 153.898438 728.09375 L 153.898438 724.898438 C 153.898438 723.828125 154.378906 723.308594 155.347656 723.308594 C 156.355469 723.308594 156.847656 723.894531 156.847656 725.105469 L 156.847656 728.09375 Z M 160.34375 722.3125 C 160.152344 722.339844 159.964844 722.359375 159.769531 722.371094 C 159.585938 722.378906 159.386719 722.382812 159.183594 722.382812 C 158.492188 722.382812 158 722.484375 157.652344 722.691406 C 157.429688 722.851562 157.273438 723.066406 157.191406 723.332031 C 157.070312 723.066406 156.890625 722.84375 156.652344 722.664062 C 156.292969 722.386719 155.808594 722.246094 155.222656 722.246094 C 154.613281 722.246094 154.105469 722.410156 153.71875 722.730469 C 153.472656 722.933594 153.300781 723.191406 153.1875 723.492188 C 153.085938 723.785156 153.023438 724.148438 153.023438 724.566406 L 153.023438 729.140625 L 161.253906 729.140625 L 161.253906 728.09375 L 157.734375 728.09375 L 157.734375 725.421875 C 157.734375 725.003906 157.761719 724.664062 157.820312 724.402344 C 157.878906 724.152344 157.957031 723.957031 158.054688 723.828125 C 158.261719 723.566406 158.675781 723.4375 159.273438 723.4375 C 160.289062 723.4375 160.90625 723.371094 161.179688 723.238281 L 161.253906 723.203125 L 161.242188 722.039062 L 161.054688 722.167969 C 161.019531 722.1875 160.886719 722.246094 160.34375 722.3125 "/>
<path style=" stroke:none;fill-rule:nonzero;fill:rgb(16.078186%,29.411316%,38.430786%);fill-opacity:1;" d="M 153.683594 716.703125 C 153.683594 716.222656 153.761719 715.78125 153.925781 715.398438 C 154.082031 715.019531 154.3125 714.675781 154.613281 714.382812 C 154.917969 714.09375 155.269531 713.875 155.675781 713.734375 C 156.085938 713.59375 156.570312 713.523438 157.128906 713.523438 C 158.210938 713.523438 159.082031 713.828125 159.695312 714.425781 C 159.984375 714.71875 160.207031 715.050781 160.347656 715.414062 C 160.492188 715.78125 160.5625 716.195312 160.5625 716.640625 C 160.5625 717.679688 160.261719 718.503906 159.65625 719.089844 C 159.054688 719.675781 158.199219 719.972656 157.128906 719.972656 C 156.589844 719.972656 156.101562 719.898438 155.683594 719.75 C 155.269531 719.605469 154.917969 719.382812 154.617188 719.082031 C 154 718.496094 153.683594 717.695312 153.683594 716.703125 M 152.796875 716.695312 C 152.796875 718.070312 153.210938 719.15625 154.015625 719.921875 C 154.796875 720.664062 155.84375 721.039062 157.128906 721.039062 C 158.472656 721.039062 159.546875 720.648438 160.304688 719.875 C 161.066406 719.097656 161.457031 718.003906 161.457031 716.609375 C 161.457031 715.347656 161.058594 714.328125 160.289062 713.582031 C 159.515625 712.839844 158.457031 712.460938 157.128906 712.460938 C 155.847656 712.460938 154.8125 712.816406 154.042969 713.511719 C 153.21875 714.273438 152.796875 715.34375 152.796875 716.695312 "/>
<path style=" stroke:none;fill-rule:nonzero;fill:rgb(16.078186%,29.411316%,38.430786%);fill-opacity:1;" d="M 161.253906 711.242188 L 161.242188 710.1875 L 157.449219 710.195312 L 157.449219 705.566406 L 156.5625 705.585938 L 156.5625 710.1875 L 153.898438 710.195312 L 153.898438 705.136719 L 153.011719 705.136719 L 153.027344 711.242188 Z M 161.253906 711.242188 "/>
<path style=" stroke:none;fill-rule:nonzero;fill:rgb(16.078186%,29.411316%,38.430786%);fill-opacity:1;" d="M 157.449219 702.964844 L 157.449219 698.046875 L 156.558594 698.058594 L 156.558594 702.972656 L 153.898438 702.972656 L 153.898438 697.683594 L 153.011719 697.683594 L 153.023438 704.007812 L 161.253906 704.007812 L 161.253906 697.632812 L 160.363281 697.632812 L 160.355469 702.972656 Z M 157.449219 702.964844 "/>
<path style=" stroke:none;fill-rule:nonzero;fill:rgb(16.078186%,29.411316%,38.430786%);fill-opacity:1;" d="M 157.289062 690.394531 C 157.023438 690.78125 156.804688 691.492188 156.605469 692.570312 C 156.339844 693.941406 156.183594 694.40625 156.101562 694.558594 C 155.902344 694.949219 155.570312 695.136719 155.089844 695.136719 C 154.613281 695.136719 154.269531 694.988281 154.039062 694.6875 C 153.804688 694.359375 153.6875 693.816406 153.6875 693.082031 C 153.6875 691.625 154.25 690.917969 155.394531 690.917969 L 155.519531 690.917969 L 155.519531 689.8125 L 155.394531 689.8125 C 153.6875 689.8125 152.824219 690.894531 152.824219 693.023438 C 152.824219 694.183594 153.027344 695.023438 153.425781 695.511719 C 153.796875 695.976562 154.359375 696.210938 155.113281 696.210938 C 155.921875 696.210938 156.5 695.933594 156.84375 695.382812 C 157.070312 695.015625 157.292969 694.242188 157.511719 693.023438 C 157.691406 692.089844 157.84375 691.503906 157.949219 691.273438 C 158.152344 690.882812 158.503906 690.695312 159.011719 690.695312 C 159.527344 690.695312 159.90625 690.839844 160.140625 691.121094 C 160.425781 691.46875 160.5625 692.054688 160.5625 692.859375 C 160.5625 694.539062 159.894531 695.351562 158.515625 695.351562 L 158.390625 695.351562 L 158.390625 696.449219 L 158.515625 696.449219 C 159.445312 696.449219 160.152344 696.195312 160.613281 695.699219 C 161.175781 695.097656 161.457031 694.144531 161.457031 692.859375 C 161.457031 690.6875 160.625 689.585938 158.988281 689.585938 C 158.191406 689.585938 157.617188 689.859375 157.289062 690.394531 "/>
<path style=" stroke:none;fill-rule:nonzero;fill:rgb(16.078186%,29.411316%,38.430786%);fill-opacity:1;" d="M 157.289062 682.394531 C 157.023438 682.78125 156.804688 683.492188 156.605469 684.570312 C 156.339844 685.941406 156.183594 686.410156 156.101562 686.558594 C 155.902344 686.949219 155.570312 687.136719 155.089844 687.136719 C 154.613281 687.136719 154.269531 686.988281 154.039062 686.691406 C 153.804688 686.359375 153.6875 685.816406 153.6875 685.082031 C 153.6875 683.625 154.25 682.917969 155.394531 682.917969 L 155.519531 682.917969 L 155.519531 681.8125 L 155.394531 681.8125 C 153.6875 681.8125 152.824219 682.894531 152.824219 685.023438 C 152.824219 686.1875 153.027344 687.023438 153.425781 687.511719 C 153.796875 687.976562 154.359375 688.210938 155.113281 688.210938 C 155.921875 688.210938 156.5 687.933594 156.84375 687.386719 C 157.070312 687.015625 157.292969 686.242188 157.511719 685.027344 C 157.691406 684.09375 157.84375 683.503906 157.949219 683.273438 C 158.152344 682.882812 158.503906 682.695312 159.011719 682.695312 C 159.527344 682.695312 159.90625 682.839844 160.140625 683.121094 C 160.425781 683.472656 160.5625 684.054688 160.5625 684.859375 C 160.5625 686.539062 159.894531 687.351562 158.515625 687.351562 L 158.390625 687.351562 L 158.390625 688.449219 L 158.515625 688.449219 C 159.445312 688.449219 160.152344 688.195312 160.613281 687.699219 C 161.175781 687.097656 161.457031 686.144531 161.457031 684.859375 C 161.457031 682.6875 160.625 681.585938 158.988281 681.585938 C 158.191406 681.585938 157.617188 681.859375 157.289062 682.394531 "/>
<path style=" stroke:none;fill-rule:nonzero;fill:rgb(16.078186%,29.411316%,38.430786%);fill-opacity:1;" d="M 161.234375 680.261719 L 161.257812 679.226562 L 153.011719 679.226562 L 153.011719 680.261719 Z M 161.234375 680.261719 "/>
<path style=" stroke:none;fill-rule:nonzero;fill:rgb(16.078186%,29.411316%,38.430786%);fill-opacity:1;" d="M 153.683594 673.59375 C 153.683594 673.113281 153.761719 672.675781 153.925781 672.292969 C 154.082031 671.910156 154.3125 671.570312 154.613281 671.273438 C 154.917969 670.984375 155.269531 670.765625 155.675781 670.625 C 156.085938 670.484375 156.570312 670.414062 157.128906 670.414062 C 158.210938 670.414062 159.082031 670.71875 159.695312 671.316406 C 159.984375 671.609375 160.207031 671.941406 160.347656 672.308594 C 160.492188 672.675781 160.5625 673.085938 160.5625 673.53125 C 160.5625 674.570312 160.261719 675.394531 159.65625 675.980469 C 159.054688 676.566406 158.199219 676.863281 157.128906 676.863281 C 156.589844 676.863281 156.101562 676.789062 155.683594 676.644531 C 155.269531 676.496094 154.917969 676.273438 154.617188 675.972656 C 154 675.386719 153.683594 674.589844 153.683594 673.59375 M 152.796875 673.589844 C 152.796875 674.960938 153.210938 676.046875 154.015625 676.8125 C 154.796875 677.554688 155.84375 677.929688 157.128906 677.929688 C 158.472656 677.929688 159.546875 677.539062 160.304688 676.765625 C 161.066406 675.988281 161.457031 674.894531 161.457031 673.503906 C 161.457031 672.238281 161.058594 671.222656 160.289062 670.476562 C 159.515625 669.730469 158.457031 669.351562 157.128906 669.351562 C 155.847656 669.351562 154.8125 669.707031 154.042969 670.40625 C 153.21875 671.164062 152.796875 672.234375 152.796875 673.589844 "/>
<path style=" stroke:none;fill-rule:nonzero;fill:rgb(16.078186%,29.411316%,38.430786%);fill-opacity:1;" d="M 159.835938 661.488281 L 153.054688 666.878906 L 153.011719 666.921875 L 153.027344 668.050781 L 161.253906 668.050781 L 161.253906 667.03125 L 154.433594 667.023438 L 161.207031 661.589844 L 161.253906 661.554688 L 161.253906 660.472656 L 153.011719 660.472656 L 153.027344 661.488281 Z M 159.835938 661.488281 "/>
<path style=" stroke:none;fill-rule:nonzero;fill:rgb(16.078186%,29.411316%,38.430786%);fill-opacity:1;" d="M 157.988281 653.546875 L 157.988281 656.910156 L 154.152344 655.21875 Z M 153.011719 655.769531 L 161.253906 659.449219 L 161.257812 658.292969 L 158.878906 657.265625 L 158.878906 653.199219 L 161.261719 652.132812 L 161.242188 650.964844 L 153.011719 654.648438 Z M 153.011719 655.769531 "/>
<path style=" stroke:none;fill-rule:nonzero;fill:rgb(16.078186%,29.411316%,38.430786%);fill-opacity:1;" d="M 160.339844 648.886719 L 153.011719 648.886719 L 153.027344 649.929688 L 161.253906 649.929688 L 161.253906 643.910156 L 160.339844 643.898438 Z M 160.339844 648.886719 "/>
<path style=" stroke:none;fill-rule:evenodd;fill:rgb(0%,28.627014%,37.646484%);fill-opacity:1;" d="M 174.507812 754.066406 C 172.566406 756.476562 170.503906 758.65625 167.683594 759.78125 C 166.75 760.15625 165.90625 759.804688 165.332031 759.285156 C 164.164062 758.226562 164.378906 756.941406 165.238281 755.742188 C 165.925781 754.785156 166.890625 754.011719 167.804688 753.238281 C 168.554688 752.601562 169.382812 752.050781 170.261719 751.421875 C 170.386719 751.332031 170.902344 750.96875 170.902344 750.96875 C 170.902344 750.96875 174.515625 748.074219 175.652344 747.035156 C 177.484375 745.359375 178.234375 743.164062 178.832031 740.898438 C 178.878906 740.722656 179.054688 740.578125 179.144531 740.632812 C 179.402344 740.792969 179.503906 741.425781 179.519531 741.511719 C 179.679688 742.199219 179.601562 743.074219 179.261719 744.519531 C 179.039062 745.464844 178.597656 746.964844 177.738281 748.648438 C 177.234375 749.644531 176.664062 750.742188 176.433594 751.132812 C 176.164062 751.59375 174.753906 753.761719 174.507812 754.066406 "/>
<path style=" stroke:none;fill-rule:nonzero;fill:rgb(0%,28.627014%,37.646484%);fill-opacity:1;" d="M 157.125 749.050781 C 158.585938 749.050781 159.765625 750.234375 159.765625 751.695312 C 159.765625 753.152344 158.585938 754.335938 157.125 754.335938 C 155.667969 754.335938 154.480469 753.152344 154.480469 751.695312 C 154.480469 750.234375 155.667969 749.050781 157.125 749.050781 "/>
<g clip-path="url(#clip2)" clip-rule="nonzero">
<path style=" stroke:none;fill-rule:nonzero;fill:rgb(0%,28.627014%,37.646484%);fill-opacity:1;" d="M 192.9375 740.621094 L 191.683594 740.621094 L 191.683594 745.742188 L 192.96875 745.742188 C 192.96875 745.742188 193.667969 745.734375 193.886719 745.742188 C 194.226562 745.757812 195.546875 745.933594 195.847656 746.007812 C 196.40625 746.160156 197.058594 746.34375 197.421875 746.445312 C 197.632812 746.527344 197.84375 746.621094 198.042969 746.722656 C 199.824219 747.640625 200.671875 749.660156 200.324219 751.628906 C 199.820312 754.519531 197.097656 756.628906 194.164062 756.226562 C 192.683594 756.027344 191.21875 755.679688 189.902344 755.003906 C 187.417969 753.722656 185.0625 752.152344 182.761719 750.570312 C 181.761719 749.886719 174.519531 744.980469 164.519531 743.144531 C 161.25 742.542969 157.988281 741.824219 154.605469 741.675781 C 151.804688 741.515625 148.679688 741.617188 146.050781 742.007812 C 140.5 742.828125 136.558594 745.25 132.511719 749.015625 C 127.25 753.914062 124.820312 760.777344 124.140625 767.851562 C 123.425781 775.34375 125.511719 779.703125 128.25 783.015625 C 131.511719 786.972656 134.558594 787.761719 138.914062 788.039062 C 142.398438 788.261719 144.386719 787.605469 147.976562 785.84375 C 150.589844 784.5625 155.101562 779.242188 157.59375 777.757812 C 159.984375 776.332031 160.277344 776.710938 162.890625 775.683594 C 164.183594 775.175781 166.359375 772.570312 166.027344 770.171875 C 165.707031 767.808594 164.011719 765.925781 160.683594 764.625 C 159.472656 764.148438 158.308594 764.121094 157.273438 763.984375 C 154.507812 763.621094 152.234375 763.707031 148.796875 763.433594 C 148.417969 763.402344 147.960938 763.363281 147.753906 763.539062 C 147.1875 764.003906 147.421875 764.621094 147.960938 764.902344 C 148.304688 765.078125 148.71875 765.125 149.097656 765.238281 C 152.75 766.316406 158.042969 768.546875 158.351562 768.640625 C 159.21875 768.980469 160.933594 769.796875 160.875 770.367188 C 160.84375 770.664062 160.835938 770.894531 160.277344 771.058594 C 159.683594 771.226562 156.859375 771.996094 153.683594 774.558594 C 148.058594 779.101562 145.355469 781.601562 141.640625 782.433594 C 137.558594 783.351562 133.226562 781.5 131.265625 777.996094 C 130.253906 776.175781 128.710938 772.34375 129.140625 768.246094 C 129.675781 763.203125 131.46875 757.609375 135.296875 754.136719 C 139.84375 750.003906 142.425781 747.339844 150.695312 747.195312 C 155.5625 747.109375 161.222656 748.183594 165.925781 749.367188 C 166.386719 749.515625 166.863281 749.671875 167.351562 749.832031 C 173.671875 751.933594 175.796875 753.183594 180.664062 756.078125 C 183.707031 757.890625 187.261719 759.960938 188.925781 760.625 C 192.089844 761.898438 195.351562 762.023438 198.667969 761.246094 C 200.113281 760.90625 201.320312 760.183594 202.40625 759.171875 C 205.839844 755.960938 206.652344 750.460938 205.011719 746.296875 C 204.636719 745.335938 203.921875 744.386719 203.109375 743.730469 C 201 742.007812 198.617188 741.011719 196.03125 740.714844 C 195.761719 740.683594 195.011719 740.660156 194.351562 740.644531 C 194.230469 740.632812 194.128906 740.625 194.054688 740.625 C 193.773438 740.613281 192.941406 740.621094 192.9375 740.621094 "/>
</g>
</g>
</svg>
